<?xml version="1.0" standalone="no"?>
<!DOCTYPE svg PUBLIC "-//W3C//DTD SVG 20010904//EN"
 "http://www.w3.org/TR/2001/REC-SVG-20010904/DTD/svg10.dtd">
<svg version="1.0" xmlns="http://www.w3.org/2000/svg"
 width="1120.000000pt" height="1120.000000pt" viewBox="0 0 1120.000000 1120.000000"
 preserveAspectRatio="xMidYMid meet">
<metadata>
Created by potrace 1.14, written by Peter Selinger 2001-2017
</metadata>
<g transform="translate(0.000000,1120.000000) scale(0.100000,-0.100000)"
fill="#000000" stroke="none">
<path d="M5653 11112 c-5 -4 -42 -45 -82 -92 -40 -47 -87 -101 -104 -121 -18
-20 -51 -58 -73 -85 -23 -27 -54 -62 -68 -79 -14 -16 -26 -34 -26 -38 0 -5 -4
-5 -10 -2 -5 3 -10 0 -10 -9 0 -8 -3 -16 -7 -18 -5 -1 -48 -50 -97 -108 -49
-58 -99 -115 -110 -126 -12 -12 -37 -41 -56 -65 -19 -24 -51 -61 -71 -81 -20
-21 -34 -38 -30 -38 3 0 1 -4 -4 -8 -6 -4 -33 -34 -60 -67 -28 -32 -57 -66
-65 -75 -8 -9 -37 -43 -65 -75 -27 -32 -58 -67 -68 -79 -10 -11 -37 -43 -60
-70 -23 -27 -76 -88 -117 -135 -41 -47 -81 -95 -90 -105 -28 -35 -75 -88 -105
-120 -29 -30 -32 -31 -120 -31 -49 0 -93 5 -97 10 -5 7 -8 7 -8 0 0 -6 -24 -9
-57 -8 -32 1 -305 4 -608 6 -302 3 -554 6 -560 7 -5 1 -14 1 -20 0 -22 -4
-173 -2 -181 2 -5 3 -17 3 -26 -1 -9 -3 -75 -4 -145 -1 -71 3 -144 3 -163 0
l-35 -5 0 -650 c0 -357 4 -658 8 -667 4 -11 4 -18 -2 -18 -6 0 -6 -11 -1 -30
5 -16 5 -32 1 -34 -4 -3 -4 -30 -1 -60 3 -30 2 -64 -2 -75 -4 -12 -4 -21 0
-21 4 0 7 -163 7 -363 0 -406 6 -369 -79 -461 -25 -26 -46 -50 -46 -53 0 -2
-15 -18 -32 -37 -18 -18 -55 -59 -83 -91 -52 -60 -108 -124 -160 -181 -16 -18
-46 -51 -65 -74 -19 -23 -48 -56 -65 -74 -35 -38 -65 -73 -155 -176 -36 -41
-76 -87 -90 -102 -53 -57 -90 -99 -90 -102 0 -1 -18 -23 -41 -47 -22 -24 -62
-68 -87 -97 -26 -29 -56 -63 -67 -76 -11 -12 -45 -51 -75 -86 -30 -34 -76 -86
-101 -114 -26 -28 -62 -68 -80 -90 -19 -21 -49 -55 -66 -75 -18 -20 -33 -38
-33 -41 0 -3 15 -22 33 -41 17 -19 55 -61 82 -93 28 -32 68 -78 90 -101 22
-24 49 -54 60 -68 19 -23 114 -131 163 -186 13 -14 47 -53 75 -85 29 -33 57
-64 62 -70 6 -6 57 -65 115 -131 58 -65 112 -126 120 -135 21 -22 63 -70 150
-170 41 -47 79 -90 85 -96 5 -6 35 -39 65 -74 30 -35 63 -70 73 -79 9 -8 17
-21 17 -28 0 -7 6 -13 13 -13 6 0 21 -13 32 -29 11 -15 51 -63 89 -105 38 -42
74 -83 80 -91 12 -16 13 -821 2 -832 -3 -4 -1 -12 5 -19 6 -8 6 -14 0 -18 -6
-4 -6 -18 -1 -35 4 -16 6 -32 3 -35 -9 -9 -9 -146 0 -146 5 0 5 -5 1 -11 -4
-7 -8 -281 -9 -610 l-1 -599 25 -1 c105 -2 254 0 258 5 3 2 15 1 28 -4 13 -5
25 -6 28 -3 9 8 197 9 197 0 0 -5 5 -5 12 -1 7 4 192 9 413 10 220 1 543 3
718 5 356 3 311 12 387 -77 19 -22 60 -69 90 -104 30 -34 58 -68 63 -75 4 -8
22 -29 40 -47 27 -29 67 -74 147 -168 8 -10 31 -37 50 -60 19 -23 44 -52 55
-64 11 -12 43 -49 70 -81 28 -32 70 -82 95 -110 25 -28 65 -75 90 -104 25 -29
54 -63 65 -75 11 -12 38 -44 60 -70 41 -50 108 -128 135 -156 8 -9 31 -36 51
-60 20 -25 47 -56 59 -70 12 -14 41 -47 64 -74 22 -27 50 -58 61 -70 11 -12
42 -48 70 -81 27 -33 55 -66 62 -72 12 -13 43 -7 43 8 0 4 8 16 18 26 10 10
42 47 72 83 30 36 60 70 65 76 6 6 31 35 57 65 25 30 56 65 68 79 12 14 40 47
63 74 23 26 54 61 70 78 15 16 27 33 27 38 0 4 4 10 9 12 4 1 27 26 51 53 96
113 126 148 136 159 5 6 39 45 74 86 36 41 69 80 75 86 5 6 28 32 50 59 22 26
45 53 50 59 9 10 51 58 194 225 25 30 56 64 69 77 12 13 22 27 22 33 0 5 4 11
8 13 5 2 40 39 78 83 38 44 77 89 86 99 10 11 18 23 18 27 0 18 61 22 295 20
138 -1 487 -4 776 -5 290 -2 531 -6 537 -10 6 -3 12 -3 14 2 1 4 36 5 76 2 39
-3 72 -2 72 3 0 4 8 3 18 -2 13 -7 23 -6 30 1 9 9 12 9 12 -1 0 -10 3 -11 13
-2 8 6 17 8 20 5 8 -9 145 -9 154 -1 3 4 5 204 4 444 -1 241 -4 755 -6 1143
l-4 705 37 41 c20 23 49 54 63 70 98 113 176 201 189 214 8 9 40 45 70 80 30
35 70 79 88 98 17 18 32 36 32 38 0 2 8 12 18 22 9 10 46 51 82 92 36 41 72
81 80 90 8 9 42 47 75 85 33 39 69 79 80 91 11 12 35 39 54 60 45 53 150 171
181 205 14 15 40 45 59 68 18 22 45 53 60 69 14 15 51 56 81 91 66 75 83 95
132 148 l37 41 -51 59 c-28 32 -78 89 -112 127 -33 38 -69 78 -79 90 -20 23
-116 132 -132 150 -6 6 -58 65 -115 130 -58 66 -116 132 -130 146 -14 15 -44
49 -67 76 -23 27 -52 61 -65 75 -13 14 -50 57 -83 94 -33 38 -72 81 -87 97
-16 16 -28 30 -28 32 0 5 -50 62 -106 122 -23 24 -59 64 -80 90 -22 25 -50 58
-64 73 -14 15 -50 55 -80 90 -30 34 -74 84 -97 109 l-42 47 4 650 c3 662 7
1594 6 1630 -1 19 -7 20 -87 18 -47 0 -88 -4 -91 -7 -4 -3 -12 -1 -20 5 -7 6
-13 8 -13 3 0 -9 -158 -10 -167 -1 -3 3 -17 1 -31 -4 -18 -7 -28 -7 -30 0 -2
6 -8 8 -14 5 -6 -4 -241 -8 -522 -10 -281 -1 -621 -4 -756 -5 -227 -2 -290 2
-290 19 0 7 -19 30 -73 92 -13 14 -47 54 -78 90 -30 36 -64 76 -76 90 -12 14
-30 34 -40 46 -25 30 -126 145 -138 158 -14 16 -107 126 -131 155 -10 12 -30
35 -44 50 -14 16 -45 52 -70 81 -25 30 -64 74 -87 99 -24 26 -43 49 -43 52 0
3 -19 27 -42 52 -74 80 -98 107 -98 112 0 3 -13 18 -30 33 -16 16 -30 32 -30
35 0 3 -10 17 -22 30 -24 24 -99 110 -168 192 -23 28 -47 55 -54 60 -7 6 -19
20 -28 33 -8 12 -32 40 -52 62 -20 21 -36 43 -36 47 -1 14 -46 42 -57 35z m48
-283 c19 -22 45 -53 59 -69 14 -15 34 -38 45 -51 11 -13 49 -58 84 -99 36 -41
69 -81 75 -88 6 -7 25 -27 41 -45 17 -18 48 -55 70 -81 43 -52 64 -76 98 -116
34 -39 214 -248 271 -315 28 -32 65 -74 83 -92 17 -18 28 -33 25 -33 -4 0 -2
-4 3 -8 6 -4 35 -36 65 -72 30 -36 62 -72 70 -80 8 -8 42 -46 74 -85 32 -38
80 -95 106 -125 26 -30 66 -76 88 -101 l39 -47 704 4 c387 3 812 6 944 8 132
1 245 1 251 -1 11 -4 11 -531 1 -1916 -2 -183 1 -281 8 -285 6 -4 37 -38 70
-77 33 -38 65 -75 70 -81 6 -6 39 -44 75 -84 72 -82 123 -139 158 -179 13 -14
47 -53 75 -85 29 -33 57 -64 62 -70 6 -6 53 -60 105 -120 52 -60 111 -125 130
-146 19 -21 54 -60 77 -87 24 -28 55 -64 70 -81 16 -17 55 -61 88 -98 33 -38
70 -79 83 -92 12 -12 22 -25 22 -27 0 -2 12 -17 28 -33 15 -16 41 -44 57 -63
17 -19 63 -71 103 -116 75 -83 81 -95 60 -118 -27 -27 -132 -147 -150 -170
-10 -13 -36 -42 -56 -63 -20 -22 -56 -61 -79 -88 -22 -27 -55 -65 -73 -84 -18
-19 -51 -57 -73 -84 -23 -26 -55 -62 -72 -80 -28 -31 -118 -131 -165 -186 -12
-14 -47 -54 -78 -89 -93 -104 -101 -114 -145 -164 -23 -27 -53 -61 -67 -76
-14 -15 -50 -56 -80 -91 -30 -34 -68 -78 -85 -96 -16 -18 -43 -47 -59 -66 -37
-42 -138 -158 -151 -172 -7 -7 -10 -130 -8 -346 1 -184 3 -677 5 -1095 l3
-760 -375 3 c-206 1 -636 4 -955 6 l-580 3 -135 -159 c-74 -88 -151 -177 -170
-198 -19 -21 -49 -55 -67 -77 -17 -21 -40 -47 -50 -58 -10 -11 -36 -42 -58
-69 -22 -28 -51 -62 -65 -76 -23 -25 -78 -89 -155 -179 -16 -20 -34 -41 -40
-47 -27 -29 -117 -134 -137 -159 -12 -15 -31 -37 -42 -49 -37 -38 -76 -90 -76
-100 0 -5 -3 -6 -6 -3 -4 3 -16 -6 -27 -21 -27 -34 -121 -145 -169 -197 -20
-22 -49 -56 -65 -75 -40 -51 -72 -84 -76 -79 -2 2 -34 40 -71 84 -38 44 -78
91 -90 105 -29 35 -147 171 -166 192 -8 9 -20 23 -25 30 -6 7 -53 62 -105 123
-52 60 -106 123 -120 139 -14 16 -45 53 -70 81 -25 28 -56 65 -70 81 -77 91
-327 381 -335 390 -5 6 -29 33 -52 61 -24 27 -53 61 -65 75 -13 14 -43 49 -68
79 -25 29 -56 65 -70 80 l-25 27 -680 -4 c-374 -3 -803 -6 -952 -8 l-273 -3
-1 39 c-1 73 0 278 1 281 6 10 3 70 -3 74 -4 2 -5 9 -2 14 9 14 10 103 1 117
-4 7 -4 12 1 12 4 0 7 39 5 87 -1 49 -2 93 -2 98 0 6 2 340 5 744 l5 734 -33
32 c-17 18 -57 61 -87 96 -30 35 -71 81 -90 103 -19 22 -46 53 -60 69 -14 15
-36 41 -50 56 -14 15 -50 56 -80 91 -30 34 -66 74 -80 89 -14 16 -48 54 -77
87 -28 32 -62 71 -75 85 -12 14 -50 57 -83 94 -74 85 -202 231 -286 325 -17
19 -54 61 -82 94 -29 32 -61 68 -72 80 -11 13 -47 53 -80 91 -33 38 -75 85
-92 104 -18 20 -33 38 -33 41 0 3 15 21 33 41 17 19 59 67 92 105 33 38 62 71
66 74 3 3 40 45 83 94 42 48 82 94 89 100 12 13 116 130 150 170 21 25 113
129 142 162 83 93 143 160 158 178 23 27 115 131 146 165 13 14 44 50 70 80
25 30 55 64 66 75 11 12 49 55 85 96 36 41 79 91 97 110 17 19 43 48 57 65
l26 30 -3 702 c-1 387 -6 703 -10 703 -5 0 -5 6 0 13 10 17 10 157 -1 157 -5
0 -4 6 1 13 7 10 9 80 3 97 -1 3 -1 9 0 15 2 11 2 126 0 138 -2 11 -2 76 0 85
1 4 2 11 1 16 -5 25 -3 234 2 242 3 6 119 9 279 7 150 -1 578 -4 950 -6 l677
-5 34 42 c37 43 53 62 118 136 22 25 43 50 48 55 4 6 28 33 52 61 24 28 67 77
94 109 28 33 57 66 65 75 8 9 32 36 52 60 20 25 48 59 63 75 14 17 45 52 68
79 23 27 49 56 57 65 9 9 38 44 66 76 80 96 88 106 114 135 14 15 48 53 75 86
28 32 59 68 70 80 11 12 29 33 39 46 40 48 147 173 201 234 11 12 40 47 65 78
25 30 48 55 51 56 3 0 21 -18 40 -41z"/>
<path d="M5202 8999 c-30 -11 -198 -180 -237 -239 -16 -25 -32 -47 -35 -50
-12 -12 -70 -99 -70 -105 0 -4 -9 -19 -19 -34 -20 -28 -121 -223 -121 -234 0
-4 -12 -32 -26 -63 -14 -30 -26 -64 -27 -75 -1 -10 -5 -19 -9 -19 -4 0 -7 -3
-6 -7 1 -5 -4 -28 -11 -53 -58 -202 -75 -375 -56 -554 8 -77 42 -217 66 -274
11 -25 20 -56 21 -71 1 -14 6 -31 10 -38 11 -14 14 -183 5 -236 -12 -66 -45
-152 -113 -294 -85 -179 -98 -208 -122 -268 -25 -61 -59 -178 -66 -225 -3 -19
-8 -46 -11 -60 -3 -14 -8 -56 -10 -95 -13 -200 -21 -229 -71 -255 -35 -19
-115 -16 -152 6 -16 9 -37 31 -47 47 -20 33 -47 129 -46 162 0 10 -4 24 -9 30
-5 6 -5 17 0 25 5 8 5 21 0 29 -9 19 -5 325 6 421 13 110 10 286 -5 303 -18
22 -32 18 -60 -18 -27 -34 -126 -236 -136 -278 -4 -15 -12 -27 -18 -27 -6 0
-7 -3 -4 -7 4 -3 2 -12 -4 -20 -6 -7 -8 -13 -5 -13 4 0 0 -12 -8 -27 -16 -29
-104 -287 -109 -320 -1 -10 -6 -24 -11 -31 -4 -7 -6 -16 -3 -18 3 -3 -1 -21
-9 -40 -8 -19 -14 -36 -14 -39 0 -3 0 -6 -1 -7 -1 -2 -2 -14 -4 -28 -2 -14
-12 -65 -23 -115 -11 -49 -23 -106 -26 -125 -30 -214 -35 -262 -43 -380 -12
-191 -7 -419 12 -615 5 -55 34 -244 42 -279 2 -11 6 -30 7 -41 2 -11 4 -20 6
-20 1 0 3 -13 5 -30 4 -37 10 -62 24 -97 6 -16 9 -28 6 -28 -2 0 1 -15 6 -32
6 -18 12 -42 14 -53 14 -63 103 -310 151 -420 10 -22 17 -43 16 -47 -1 -5 3
-8 8 -8 6 0 10 -5 10 -12 0 -6 18 -48 41 -92 45 -90 40 -80 109 -194 27 -46
50 -87 50 -92 0 -5 4 -10 8 -12 5 -1 23 -25 42 -53 29 -44 89 -121 127 -165
36 -41 190 -189 215 -205 179 -121 237 -155 331 -196 62 -27 123 -50 137 -53
14 -2 26 -5 28 -7 1 -1 5 -2 10 -4 4 -1 14 -4 22 -7 28 -11 135 -37 175 -44
22 -3 44 -9 50 -12 5 -3 19 -7 31 -8 33 -4 96 -13 128 -20 16 -3 40 -7 55 -9
14 -1 62 -6 106 -11 124 -12 550 -8 550 6 0 1 16 3 35 5 73 6 292 59 360 88
14 5 30 11 35 12 22 5 123 51 195 88 192 101 387 269 525 456 39 51 70 96 70
100 1 3 13 26 29 50 72 112 172 336 225 506 13 39 25 77 28 85 7 17 9 25 17
55 3 11 15 56 27 100 11 44 22 85 23 90 1 6 5 19 9 30 3 11 9 36 12 55 2 19
12 66 20 105 9 38 17 83 20 100 2 16 4 30 5 30 1 0 4 14 5 30 2 17 6 41 9 55
6 30 16 126 21 195 2 28 4 50 5 50 6 0 4 299 -2 308 -4 6 -2 17 4 24 6 7 6 13
2 13 -5 0 -10 25 -12 55 -2 30 -5 65 -7 77 -3 12 -7 40 -10 63 -15 103 -49
230 -112 410 -34 99 -40 116 -61 165 -25 58 -242 609 -242 614 0 2 -5 17 -12
33 -6 15 -12 31 -13 36 -2 4 -4 9 -5 12 -1 3 -3 9 -4 14 0 5 -4 13 -8 17 -5 4
-8 13 -8 20 0 7 -4 23 -9 36 -5 13 -9 26 -10 30 -1 4 -9 27 -17 50 -9 24 -17
48 -18 55 -1 7 -5 15 -8 19 -4 3 -4 12 -2 19 3 7 1 16 -5 19 -5 4 -13 26 -16
51 -8 50 -31 77 -62 69 -30 -8 -39 -39 -37 -124 3 -92 17 -259 29 -328 4 -21
8 -46 9 -57 7 -45 17 -102 21 -125 3 -13 7 -42 10 -65 3 -22 8 -51 10 -65 2
-14 7 -43 10 -65 3 -23 8 -52 10 -65 3 -14 7 -47 10 -75 3 -27 7 -61 10 -75
10 -46 12 -318 3 -377 -11 -64 -49 -113 -72 -93 -7 5 -15 7 -19 4 -11 -12 -31
43 -33 96 -5 90 -13 194 -17 215 -3 11 -7 41 -11 66 -12 80 -16 97 -51 214
-39 127 -86 223 -170 344 -89 128 -173 316 -189 422 -3 20 -8 42 -11 50 -10
27 -12 193 -3 269 4 41 20 116 34 165 14 50 27 95 28 100 2 6 13 32 24 58 12
27 22 50 22 52 0 2 26 59 59 127 86 181 94 213 66 242 -15 15 -19 15 -46 -1
-16 -9 -40 -27 -53 -40 -14 -13 -28 -23 -31 -23 -3 0 -13 -8 -24 -17 -10 -10
-51 -47 -92 -83 -40 -36 -98 -92 -128 -124 -31 -33 -64 -67 -73 -78 -10 -10
-18 -20 -18 -23 0 -3 -8 -13 -17 -23 -28 -29 -53 -62 -53 -68 0 -3 -13 -24
-28 -47 -67 -99 -129 -235 -162 -357 -21 -75 -51 -220 -56 -268 -2 -18 -6 -42
-9 -53 -4 -10 -8 -31 -11 -46 -3 -16 -12 -55 -21 -88 -8 -33 -16 -64 -18 -70
-14 -61 -63 -195 -74 -205 -4 -3 -17 -22 -31 -43 -31 -46 -96 -81 -137 -71
-49 11 -88 69 -100 147 -9 52 -8 385 1 467 17 162 14 313 -8 434 -14 76 -94
282 -123 317 -7 8 -13 19 -13 23 0 4 -34 66 -75 137 -41 71 -75 133 -75 138 0
5 -3 11 -7 13 -8 3 -54 94 -87 170 -41 93 -81 242 -93 348 -13 117 -7 356 12
450 3 14 7 39 10 55 7 38 14 73 21 105 4 14 7 43 8 64 1 42 -11 50 -52 35z"/>
</g>
</svg>
